{"title":"The Unidentified 2008 DVDRip GoGo","uid":5620767,"size":1038472906,"categoryP":"video","categoryS":"movies","magnet":"?xt=urn:btih:fb6fd72b7d77fa197fd512f7cb164f606cb88868&amp;dn=The+Unidentified+2008+DVDRip+GoGo&amp;tr=udp%3A%2F%2Ftracker.openbittorrent.com%3A80&amp;tr=udp%3A%2F%2Fopen.demonii.com%3A1337&amp;tr=udp%3A%2F%2Ftracker.coppersurfer.tk%3A6969&amp;tr=udp%3A%2F%2Fexodus.desync.com%3A6969","seeders":1,"leechers":1,"uploader":"fasamoo","files":7,"time":1276263778,"description":"\n\n[img]http://img155.imageshack.us/img155/6063/theunidentified.jpg[/img]\n\n\nAt once gritty and whimsical, The Unidentified follow Estlin, a \n\npassionate young journalist scraping by in New York City. As his \n\nfrustration with his entry-level job at a local newspaper peaks, his \n\ndisgruntled best friend, Brooke, leaves Brooklyn for Ohio. Set adrift, \n\nEstlin falls for Sophie, an elusive artist with an optimistic view on \n\nlife. But as their romance blossoms, his high ideals and dogged \n\npursuit of truth come into conflict with her tightly guarded secrets. \n\nThe film is an exploration of idealism and apathy in today's youth \n\nculture and the vestiges of the social consciousness of the 1960s. In \n\na climactic scene shot at a real anti-war protest in Washington D.C., \n\nEstlin must come to terms with what has been lost, what still remains \n\nand where he must go from here.\n\n\n\n\n[img]http://img689.imageshack.us/img689/3136/bscap0010hf.jpg[/img]\n[img]http://img263.imageshack.us/img263/3432/bscap0008f.jpg[/img]\n[img]http://img641.imageshack.us/img641/5168/bscap0005s.jpg[/img]\n[img]http://img692.imageshack.us/img692/5043/bscap0004a.jpg[/img]\n[img]http://img412.imageshack.us/img412/7098/bscap0000ul.jpg[/img]\n[img]http://img532.imageshack.us/img532/1729/theunidentified2008dvdry.jpg[/img]\n\n\n\n\nGeneral\nComplete name                    : The Unidentified 2008 DVDRip GoGo\n\nThe Unidentified 2008 DVDRip GoGo.avi\nIMDB Link                        : [url]http://www.imdb.com/title/tt1055368/[/url]\nFormat                           : AVI\nFormat/Info                      : Audio Video Interleave\nFile size                        : 990 MiB\nDuration                         : 1h 48mn\nOverall bit rate                 : 1 274 Kbps\nWriting application              : Lavf51.12.1\n\nVideo\nID                               : 0\nFormat                           : MPEG-4 Visual\nFormat profile                   : Simple@L1\nFormat settings, BVOP            : No\nFormat settings, QPel            : No\nFormat settings, GMC             : No warppoints\nFormat settings, Matrix          : Default (H.263)\nCodec ID                         : DX50\nCodec ID/Hint                    : DivX 5\nDuration                         : 1h 48mn\nBit rate                         : 1 133 Kbps\nWidth                            : 624 pixels\nHeight                           : 336 pixels\nDisplay aspect ratio             : 1.857\nFrame rate                       : 23.976 fps\nResolution                       : 8 bits\nColorimetry                      : 4:2:0\nScan type                        : Progressive\nBits/(Pixel*Frame)               : 0.225\nStream size                      : 881 MiB (89%)\nWriting library                  : Lavc51.40.4\n\nAudio\nID                               : 1\nFormat                           : MPEG Audio\nFormat version                   : Version 1\nFormat profile                   : Layer 3\nMode                             : Joint stereo\nFormat_Settings_ModeExtension    : MS Stereo\nCodec ID                         : 55\nCodec ID/Hint                    : MP3\nDuration                         : 1h 48mn\nBit rate mode                    : Constant\nBit rate                         : 128 Kbps\nChannel(s)                       : 2 channels\nSampling rate                    : 48.0 KHz\nStream size                      : 99.5 MiB (10%)\nAlignment                        : Aligned on interleaves\nInterleave, duration             : 24 ms (0.58 video frame)\nInterleave, preload duration     : 24 ms\nWriting library                  : LAME3.97\nSubtitles                        : None\nGenre                            : Comedy | Drama | Romance \n\n[img]http://imgboot.com/images/fasamoo/pleaseseed.gif[/img] ","torrent":{"xt":"urn:btih:fb6fd72b7d77fa197fd512f7cb164f606cb88868","amp;dn":"The+Unidentified+2008+DVDRip+GoGo","amp;tr":["udp%3A%2F%2Ftracker.openbittorrent.com%3A80","udp%3A%2F%2Fopen.demonii.com%3A1337","udp%3A%2F%2Ftracker.coppersurfer.tk%3A6969","udp%3A%2F%2Fexodus.desync.com%3A6969"],"infoHash":"fb6fd72b7d77fa197fd512f7cb164f606cb88868","infoHashBuffer":{"type":"Buffer","data":[251,111,215,43,125,119,250,25,127,213,18,247,203,22,79,96,108,184,136,104]},"announce":[],"urlList":[]}}